<?xml version="1.0" encoding="UTF-8"?>
<svg width="49px" height="49px" viewBox="0 0 49 49" version="1.1" xmlns="http://www.w3.org/2000/svg" xmlns:xlink="http://www.w3.org/1999/xlink">
    <title>画板备份 6</title>
    <g id="画板备份-6" stroke="none" stroke-width="1" fill="none" fill-rule="evenodd">
        <g id="编组" transform="translate(0.500000, 0.500000)" fill-rule="nonzero">
            <g id="分组-4">
                <rect id="矩形" x="0" y="0" width="48" height="48"></rect>
                <g id="remind" transform="translate(2.400000, 2.400000)" fill="#FFFFFF">
                    <path d="M27.7717091,33.9908761 L5.20952727,33.9908761 C6.49570909,31.4325815 8.22763636,27.507653 8.22763636,24.8977873 L8.22763636,15.6518269 C8.22763636,9.0488851 14.2265455,3.68364954 21.6,3.68364954 C28.9734545,3.68364954 34.9723636,9.05072692 34.9723636,15.6499851 L34.9723636,24.763334 C34.9723636,27.4081944 36.7180364,31.4031123 38.0061818,33.9908761 L27.7717091,33.9908761 L27.7717091,33.9908761 Z M21.6,39.5163505 C20.0840727,39.5163505 18.7723636,38.7704114 18.0576,37.6745257 L25.1424,37.6745257 C24.4276364,38.7704114 23.1159273,39.5163505 21.6,39.5163505 L21.6,39.5163505 Z M42.8406545,34.8510083 L42.9781091,34.7883863 C41.8941818,32.8820976 39.0861818,27.3658324 39.0861818,24.763334 L39.0861818,15.6499851 C39.0861818,7.02103603 31.2414545,0 21.6,0 C11.9585455,0 4.11381818,7.02103603 4.11381818,15.6499851 L4.11381818,24.8977873 C4.11381818,27.1724408 1.72996364,32.1656278 0.227781818,34.7791771 L0.365236364,34.843641 C0.138182177,35.1303686 0.010669206,35.4756737 0,35.8327009 C0,36.8493882 0.922909091,37.6745257 2.05789091,37.6745257 L13.6629818,37.6745257 C14.5839273,40.8424643 17.7787636,43.2 21.6,43.2 C25.4212364,43.2 28.6160727,40.8424643 29.5370182,37.6745257 L41.1421091,37.6745257 C42.2790545,37.6745257 43.2,36.8493882 43.2,35.8327009 C43.1888327,35.4789115 43.0635368,35.1366169 42.8406545,34.8510083 L42.8406545,34.8510083 Z" id="形状"></path>
                </g>
            </g>
        </g>
    </g>
</svg>