<svg width="59" height="57" xmlns="http://www.w3.org/2000/svg" xmlns:xlink="http://www.w3.org/1999/xlink" overflow="hidden"><defs><clipPath id="clip0"><rect x="0" y="0" width="59" height="57"/></clipPath></defs><g clip-path="url(#clip0)"><path d="M27.4784 1.25182C11.7999 1.25182 0.164173 12.785 0.164173 28.6071 0.164173 43.3415 12.867 54.8952 27.4784 54.8952 43.2596 54.8952 54.8952 42.2745 54.8952 27.5401 54.8952 12.785 42.3155 0.164173 27.4784 1.25182M29.6127 9.56307C32.8141 9.56307 33.7581 11.7178 33.7581 12.785 33.7581 15.8837 31.7469 18.018 28.5457 18.018 26.5138 18.018 25.4468 15.8837 25.4468 13.8521 25.4468 12.785 26.5138 9.56307 29.6127 9.56307M23.3126 44.4292C21.1783 44.4292 20.2343 43.3415 21.1783 39.0731 23.3126 29.6743 23.3126 29.6743 23.3126 29.6743 23.3126 28.6071 23.3126 27.5401 23.3126 27.5401 22.2453 27.5401 20.2343 28.6071 19.1672 29.6743 18.1001 28.6071 18.1001 28.6071 18.1001 28.6071 22.2453 24.4412 27.4784 22.1839 29.6127 22.1839 31.7469 22.1839 31.7469 24.4412 31.7469 27.5401 28.5457 37.0414 28.5457 37.0414 28.5457 37.0414 28.5457 39.0731 28.5457 39.0731 28.5457 39.0731 29.6127 39.0731 31.7469 39.0731 32.8141 37.0414 33.7581 39.0731 33.7581 39.0731 33.7581 39.0731 29.6127 43.3415 25.4468 44.4292 23.3126 44.4292" fill="#4472C4" transform="matrix(1 0 -0 1.00188 0.743911 0)"/></g></svg>